<?xml version="1.0" encoding="utf-8"?>
<!-- Generator: Adobe Illustrator 19.0.0, SVG Export Plug-In . SVG Version: 6.00 Build 0)  -->
<svg version="1.1" baseProfile="tiny" id="Layer_1" xmlns="http://www.w3.org/2000/svg" xmlns:xlink="http://www.w3.org/1999/xlink"
	 x="0px" y="0px" viewBox="0 0 283.5 170.1" xml:space="preserve">
<g>
	<rect x="20.2" y="11.1" fill="none" width="243.3" height="147.1"/>
	<path d="M264.3,10.4H19.5V159h244.8V10.4z M20.2,158.2V11.1h243.3v147.1H20.2z"/>
</g>
<polyline points="111.9,29.9 109.7,32 108.9,32 108.9,32.6 111.3,32.6 111.3,32 110.5,32 112.2,30.3 113.9,32 113.2,32 113.2,32.6 
	115.6,32.6 115.6,32 114.7,32 112.6,29.9 114.5,28.1 115.4,28.1 115.4,27.5 113,27.5 113,28.1 113.7,28.1 112.2,29.5 110.8,28.1 
	111.4,28.1 111.4,27.5 109.1,27.5 109.1,28.1 110,28.1 111.9,29.9 "/>
<polyline points="123.9,41.9 121.7,44 120.9,44 120.9,44.6 123.3,44.6 123.3,44 122.5,44 124.2,42.3 125.9,44 125.2,44 125.2,44.6 
	127.6,44.6 127.6,44 126.7,44 124.6,41.9 126.5,40.1 127.4,40.1 127.4,39.5 125,39.5 125,40.1 125.7,40.1 124.2,41.5 122.8,40.1 
	123.4,40.1 123.4,39.5 121.1,39.5 121.1,40.1 122,40.1 123.9,41.9 "/>
<polyline points="135.9,53.9 133.7,56 132.9,56 132.9,56.6 135.3,56.6 135.3,56 134.5,56 136.2,54.3 137.9,56 137.2,56 137.2,56.6 
	139.6,56.6 139.6,56 138.7,56 136.6,53.9 138.5,52.1 139.4,52.1 139.4,51.5 137,51.5 137,52.1 137.7,52.1 136.2,53.5 134.8,52.1 
	135.4,52.1 135.4,51.5 133.1,51.5 133.1,52.1 134,52.1 135.9,53.9 "/>
<polyline points="246.7,119.9 244.6,122 243.8,122 243.8,122.6 246.2,122.6 246.2,122 245.4,122 247.1,120.3 248.8,122 248.1,122 
	248.1,122.6 250.5,122.6 250.5,122 249.6,122 247.5,119.9 249.4,118.1 250.3,118.1 250.3,117.5 247.9,117.5 247.9,118.1 
	248.6,118.1 247.1,119.5 245.6,118.1 246.3,118.1 246.3,117.5 243.9,117.5 243.9,118.1 244.9,118.1 246.7,119.9 "/>
<polyline points="237.9,110.8 235.7,112.9 234.9,112.9 234.9,113.5 237.3,113.5 237.3,112.9 236.5,112.9 238.2,111.2 239.9,112.9 
	239.2,112.9 239.2,113.5 241.6,113.5 241.6,112.9 240.7,112.9 238.6,110.8 240.5,108.9 241.4,108.9 241.4,108.4 239,108.4 
	239,108.9 239.7,108.9 238.2,110.4 236.8,108.9 237.4,108.9 237.4,108.4 235.1,108.4 235.1,108.9 236,108.9 237.9,110.8 "/>
<polyline points="219.9,110.8 217.7,112.9 216.9,112.9 216.9,113.5 219.3,113.5 219.3,112.9 218.5,112.9 220.2,111.2 221.9,112.9 
	221.2,112.9 221.2,113.5 223.6,113.5 223.6,112.9 222.7,112.9 220.6,110.8 222.5,108.9 223.4,108.9 223.4,108.4 221,108.4 
	221,108.9 221.7,108.9 220.2,110.4 218.8,108.9 219.4,108.9 219.4,108.4 217.1,108.4 217.1,108.9 218,108.9 219.9,110.8 "/>
<polyline points="183.9,128.8 181.7,130.9 180.9,130.9 180.9,131.5 183.3,131.5 183.3,130.9 182.5,130.9 184.2,129.2 185.9,130.9 
	185.2,130.9 185.2,131.5 187.6,131.5 187.6,130.9 186.7,130.9 184.6,128.8 186.5,126.9 187.4,126.9 187.4,126.4 185,126.4 
	185,126.9 185.7,126.9 184.2,128.4 182.8,126.9 183.4,126.9 183.4,126.4 181.1,126.4 181.1,126.9 182,126.9 183.9,128.8 "/>
<polyline points="195.9,137.9 193.7,140 192.9,140 192.9,140.6 195.3,140.6 195.3,140 194.5,140 196.2,138.3 197.9,140 197.2,140 
	197.2,140.6 199.6,140.6 199.6,140 198.7,140 196.6,137.9 198.5,136.1 199.4,136.1 199.4,135.5 197,135.5 197,136.1 197.7,136.1 
	196.2,137.5 194.8,136.1 195.4,136.1 195.4,135.5 193.1,135.5 193.1,136.1 194,136.1 195.9,137.9 "/>
<polyline points="210.7,146.8 208.6,148.9 207.8,148.9 207.8,149.5 210.2,149.5 210.2,148.9 209.4,148.9 211.1,147.2 212.8,148.9 
	212.1,148.9 212.1,149.5 214.5,149.5 214.5,148.9 213.6,148.9 211.5,146.8 213.4,144.9 214.3,144.9 214.3,144.4 211.9,144.4 
	211.9,144.9 212.6,144.9 211.1,146.4 209.6,144.9 210.3,144.9 210.3,144.4 207.9,144.4 207.9,144.9 208.9,144.9 210.7,146.8 "/>
<polyline points="219.9,137.9 217.7,140 216.9,140 216.9,140.6 219.3,140.6 219.3,140 218.5,140 220.2,138.3 221.9,140 221.2,140 
	221.2,140.6 223.6,140.6 223.6,140 222.7,140 220.6,137.9 222.5,136.1 223.4,136.1 223.4,135.5 221,135.5 221,136.1 221.7,136.1 
	220.2,137.5 218.8,136.1 219.4,136.1 219.4,135.5 217.1,135.5 217.1,136.1 218,136.1 219.9,137.9 "/>
<polyline points="231.9,149.9 229.7,152 228.9,152 228.9,152.6 231.3,152.6 231.3,152 230.5,152 232.2,150.3 233.9,152 233.2,152 
	233.2,152.6 235.6,152.6 235.6,152 234.7,152 232.6,149.9 234.5,148.1 235.4,148.1 235.4,147.5 233,147.5 233,148.1 233.7,148.1 
	232.2,149.5 230.8,148.1 231.4,148.1 231.4,147.5 229.1,147.5 229.1,148.1 230,148.1 231.9,149.9 "/>
<polyline points="255.9,110.8 253.7,112.9 252.9,112.9 252.9,113.5 255.3,113.5 255.3,112.9 254.5,112.9 256.2,111.2 257.9,112.9 
	257.2,112.9 257.2,113.5 259.6,113.5 259.6,112.9 258.7,112.9 256.6,110.8 258.5,108.9 259.4,108.9 259.4,108.4 257,108.4 
	257,108.9 257.7,108.9 256.2,110.4 254.8,108.9 255.4,108.9 255.4,108.4 253.1,108.4 253.1,108.9 254,108.9 255.9,110.8 "/>
<polyline points="165.9,119.9 163.7,122 162.9,122 162.9,122.6 165.3,122.6 165.3,122 164.5,122 166.2,120.3 167.9,122 167.2,122 
	167.2,122.6 169.6,122.6 169.6,122 168.7,122 166.6,119.9 168.5,118.1 169.4,118.1 169.4,117.5 167,117.5 167,118.1 167.7,118.1 
	166.2,119.5 164.8,118.1 165.4,118.1 165.4,117.5 163.1,117.5 163.1,118.1 164,118.1 165.9,119.9 "/>
<polyline points="243.9,137.9 241.7,140 240.9,140 240.9,140.6 243.3,140.6 243.3,140 242.5,140 244.2,138.3 245.9,140 245.2,140 
	245.2,140.6 247.6,140.6 247.6,140 246.7,140 244.6,137.9 246.5,136.1 247.4,136.1 247.4,135.5 245,135.5 245,136.1 245.7,136.1 
	244.2,137.5 242.8,136.1 243.4,136.1 243.4,135.5 241.1,135.5 241.1,136.1 242,136.1 243.9,137.9 "/>
<polyline points="183.9,119.9 181.7,122 180.9,122 180.9,122.6 183.3,122.6 183.3,122 182.5,122 184.2,120.3 185.9,122 185.2,122 
	185.2,122.6 187.6,122.6 187.6,122 186.7,122 184.6,119.9 186.5,118.1 187.4,118.1 187.4,117.5 185,117.5 185,118.1 185.7,118.1 
	184.2,119.5 182.8,118.1 183.4,118.1 183.4,117.5 181.1,117.5 181.1,118.1 182,118.1 183.9,119.9 "/>
<polyline points="147.9,65.9 145.7,68 144.9,68 144.9,68.6 147.3,68.6 147.3,68 146.5,68 148.2,66.3 149.9,68 149.2,68 149.2,68.6 
	151.6,68.6 151.6,68 150.7,68 148.6,65.9 150.5,64.1 151.4,64.1 151.4,63.5 149,63.5 149,64.1 149.7,64.1 148.2,65.5 146.8,64.1 
	147.4,64.1 147.4,63.5 145.1,63.5 145.1,64.1 146,64.1 147.9,65.9 "/>
<polyline points="159.9,29.9 157.7,32 156.9,32 156.9,32.6 159.3,32.6 159.3,32 158.5,32 160.2,30.3 161.9,32 161.2,32 161.2,32.6 
	163.6,32.6 163.6,32 162.7,32 160.6,29.9 162.5,28.1 163.4,28.1 163.4,27.5 161,27.5 161,28.1 161.7,28.1 160.2,29.5 158.8,28.1 
	159.4,28.1 159.4,27.5 157.1,27.5 157.1,28.1 158,28.1 159.9,29.9 "/>
<polyline points="138.7,20.8 136.6,22.9 135.8,22.9 135.8,23.5 138.2,23.5 138.2,22.9 137.4,22.9 139.1,21.2 140.8,22.9 140.1,22.9 
	140.1,23.5 142.5,23.5 142.5,22.9 141.6,22.9 139.5,20.8 141.4,18.9 142.3,18.9 142.3,18.4 139.9,18.4 139.9,18.9 140.6,18.9 
	139.1,20.4 137.6,18.9 138.3,18.9 138.3,18.4 135.9,18.4 135.9,18.9 136.9,18.9 138.7,20.8 "/>
<polyline points="48.7,110.8 46.6,112.9 45.8,112.9 45.8,113.5 48.2,113.5 48.2,112.9 47.4,112.9 49.1,111.2 50.8,112.9 50.1,112.9 
	50.1,113.5 52.5,113.5 52.5,112.9 51.6,112.9 49.5,110.8 51.4,108.9 52.3,108.9 52.3,108.4 49.9,108.4 49.9,108.9 50.6,108.9 
	49.1,110.4 47.6,108.9 48.3,108.9 48.3,108.4 45.9,108.4 45.9,108.9 46.9,108.9 48.7,110.8 "/>
<polyline points="60.7,122.8 58.6,124.9 57.8,124.9 57.8,125.5 60.2,125.5 60.2,124.9 59.4,124.9 61.1,123.2 62.8,124.9 62.1,124.9 
	62.1,125.5 64.5,125.5 64.5,124.9 63.6,124.9 61.5,122.8 63.4,120.9 64.3,120.9 64.3,120.4 61.9,120.4 61.9,120.9 62.6,120.9 
	61.1,122.4 59.6,120.9 60.3,120.9 60.3,120.4 57.9,120.4 57.9,120.9 58.9,120.9 60.7,122.8 "/>
<polyline points="72.7,134.8 70.6,136.9 69.8,136.9 69.8,137.5 72.2,137.5 72.2,136.9 71.4,136.9 73.1,135.2 74.8,136.9 74.1,136.9 
	74.1,137.5 76.5,137.5 76.5,136.9 75.6,136.9 73.5,134.8 75.4,132.9 76.3,132.9 76.3,132.4 73.9,132.4 73.9,132.9 74.6,132.9 
	73.1,134.4 71.6,132.9 72.3,132.9 72.3,132.4 69.9,132.4 69.9,132.9 70.9,132.9 72.7,134.8 "/>
<polyline points="39.9,128.8 37.7,130.9 36.9,130.9 36.9,131.5 39.3,131.5 39.3,130.9 38.5,130.9 40.2,129.2 41.9,130.9 41.2,130.9 
	41.2,131.5 43.6,131.5 43.6,130.9 42.7,130.9 40.6,128.8 42.5,126.9 43.4,126.9 43.4,126.4 41,126.4 41,126.9 41.7,126.9 
	40.2,128.4 38.8,126.9 39.4,126.9 39.4,126.4 37.1,126.4 37.1,126.9 38,126.9 39.9,128.8 "/>
<polyline points="30.7,29.9 28.6,32 27.8,32 27.8,32.6 30.2,32.6 30.2,32 29.4,32 31.1,30.3 32.8,32 32.1,32 32.1,32.6 34.5,32.6 
	34.5,32 33.6,32 31.5,29.9 33.4,28.1 34.3,28.1 34.3,27.5 31.9,27.5 31.9,28.1 32.6,28.1 31.1,29.5 29.6,28.1 30.3,28.1 30.3,27.5 
	27.9,27.5 27.9,28.1 28.9,28.1 30.7,29.9 "/>
<polyline points="42.7,41.9 40.6,44 39.8,44 39.8,44.6 42.2,44.6 42.2,44 41.4,44 43.1,42.3 44.8,44 44.1,44 44.1,44.6 46.5,44.6 
	46.5,44 45.6,44 43.5,41.9 45.4,40.1 46.3,40.1 46.3,39.5 43.9,39.5 43.9,40.1 44.6,40.1 43.1,41.5 41.6,40.1 42.3,40.1 42.3,39.5 
	39.9,39.5 39.9,40.1 40.9,40.1 42.7,41.9 "/>
<polyline points="54.7,53.9 52.6,56 51.8,56 51.8,56.6 54.2,56.6 54.2,56 53.4,56 55.1,54.3 56.8,56 56.1,56 56.1,56.6 58.5,56.6 
	58.5,56 57.6,56 55.5,53.9 57.4,52.1 58.3,52.1 58.3,51.5 55.9,51.5 55.9,52.1 56.6,52.1 55.1,53.5 53.6,52.1 54.3,52.1 54.3,51.5 
	51.9,51.5 51.9,52.1 52.9,52.1 54.7,53.9 "/>
<polyline points="30.7,47.9 28.6,50 27.8,50 27.8,50.6 30.2,50.6 30.2,50 29.4,50 31.1,48.3 32.8,50 32.1,50 32.1,50.6 34.5,50.6 
	34.5,50 33.6,50 31.5,47.9 33.4,46.1 34.3,46.1 34.3,45.5 31.9,45.5 31.9,46.1 32.6,46.1 31.1,47.5 29.6,46.1 30.3,46.1 30.3,45.5 
	27.9,45.5 27.9,46.1 28.9,46.1 30.7,47.9 "/>
<path fill="none" stroke="#000000" stroke-width="0.75" stroke-linecap="round" stroke-linejoin="round" stroke-miterlimit="10" stroke-dasharray="2.25,3" d="
	M204.9,153.3c6.7,2.2,16.6,2.9,21.6,3.1c5.3,0.2,7.2-0.2,9.8-1.2c2.9-1,4.6-2.6,6.7-4.6c2.2-1.7,4.1-3.6,6-6c1.9-2.2,4.1-5,5.8-7.7
	c1.4-2.9,2.4-4.3,3.4-8.9c1-4.3,2.6-14.4,1.9-18.2c-1-3.8-3.4-3.4-7-4.1c-3.6-1-9.1-1.2-14.9-1.2c-5.8,0-13.7,0.5-19.9,1.4
	c-6.2,1-10.6,2.9-18,4.1c-7.4,1.4-19.7,2.2-26.6,3.8c-6.7,1.7-13.2,2.9-14.2,6c-1,3.4,4.1,9.6,8.6,13.4c4.3,4.1,12.2,7,18.2,10.3
	C192.6,146.8,198.2,151.2,204.9,153.3z M136.2,16c-9.1,0-20.2,1.9-25.9,4.1c-5.8,2.4-8.9,4.6-8.9,9.1s2.9,10.6,8.9,18
	s19.4,22.6,27.1,26.9c7.4,4.6,13.7,2.6,18,0c4.1-2.4,5-9.4,7-15.6c2.2-6.2,5.3-15.8,5.8-22.1c0.2-6.5,1.4-13-3.8-16.3
	C159,17,145.1,16,136.2,16z M38.3,110.1c-2.9,5.8-12,21.4-8.9,27.1c2.9,5.8,19.4,6,26.9,7.2c7.4,1.2,13.4,1.4,18,0
	c4.6-1.4,10.6-4.6,9.1-8.9c-1.7-4.6-13.7-13.7-18-18c-4.6-4.6-6-6.7-9.1-9.1c-2.9-2.4-6-5-8.9-5C44.3,103.4,41.4,104.6,38.3,110.1z
	 M62.3,59c1.4-2.4,4.3-5.5,1.4-10.3c-2.6-4.6-12-13.4-18-18c-6-4.6-14.2-8.9-18-8.9c-3.8,0-4.3,4.3-5,8.9c-1,4.6-1,13.4,0,18
	c0.7,4.6,2.9,6.7,5,9.1c2.4,2.4,4.6,4.3,9.1,5c4.6,1,13.7,0.7,18,0C59.2,62.1,60.9,61.2,62.3,59z"/>
</svg>
