<?xml version="1.0" encoding="utf-8"?>
<!-- Generator: Adobe Illustrator 19.0.0, SVG Export Plug-In . SVG Version: 6.00 Build 0)  -->
<svg version="1.1" baseProfile="tiny" id="Layer_1" xmlns="http://www.w3.org/2000/svg" xmlns:xlink="http://www.w3.org/1999/xlink"
	 x="0px" y="0px" viewBox="0 0 283.5 170.1" xml:space="preserve">
<g>
	<rect x="22.1" y="10.5" fill="none" width="243.3" height="147.1"/>
	<path d="M266.1,9.7H21.3v148.6h244.8V9.7z M265.4,157.6H22.1V10.5h243.3V157.6z"/>
</g>
<polyline points="117.4,31.7 117.4,31 116.5,31 114.5,29 116.2,27.1 117.1,27.1 117.1,26.5 114.9,26.5 114.9,27.1 115.4,27.1 
	114.1,28.5 112.7,27.1 113.3,27.1 113.3,26.5 111,26.5 111,27.1 111.9,27.1 113.7,28.9 111.6,31 110.8,31 110.8,31.7 113.2,31.7 
	113.2,31 112.5,31 114.1,29.4 115.7,31 115,31 115,31.7 117.4,31.7 "/>
<polyline points="129.4,43.7 129.4,43 128.5,43 126.5,41 128.2,39.1 129.1,39.1 129.1,38.5 126.9,38.5 126.9,39.1 127.4,39.1 
	126.1,40.5 124.7,39.1 125.3,39.1 125.3,38.5 123,38.5 123,39.1 123.9,39.1 125.7,40.9 123.6,43 122.8,43 122.8,43.7 125.2,43.7 
	125.2,43 124.5,43 126.1,41.4 127.7,43 127,43 127,43.7 129.4,43.7 "/>
<polyline points="141.4,55.7 141.4,55 140.5,55 138.5,53 140.2,51.1 141.1,51.1 141.1,50.5 138.9,50.5 138.9,51.1 139.4,51.1 
	138.1,52.5 136.7,51.1 137.3,51.1 137.3,50.5 135,50.5 135,51.1 135.9,51.1 137.7,52.9 135.6,55 134.8,55 134.8,55.7 137.2,55.7 
	137.2,55 136.5,55 138.1,53.4 139.7,55 139,55 139,55.7 141.4,55.7 "/>
<polyline points="252.3,121.7 252.3,121 251.4,121 249.4,119 251.1,117.1 252,117.1 252,116.5 249.8,116.5 249.8,117.1 250.3,117.1 
	249,118.5 247.6,117.1 248.2,117.1 248.2,116.5 245.8,116.5 245.8,117.1 246.8,117.1 248.6,118.9 246.5,121 245.6,121 245.6,121.7 
	248.1,121.7 248.1,121 247.3,121 249,119.4 250.6,121 249.8,121 249.8,121.7 252.3,121.7 "/>
<polyline points="243.4,112.8 243.4,112.2 242.5,112.2 240.5,110.1 242.2,108.3 243.1,108.3 243.1,107.6 240.9,107.6 240.9,108.3 
	241.4,108.3 240.1,109.6 238.7,108.3 239.3,108.3 239.3,107.6 237,107.6 237,108.3 237.9,108.3 239.7,110.1 237.6,112.2 
	236.8,112.2 236.8,112.8 239.2,112.8 239.2,112.2 238.5,112.2 240.1,110.5 241.7,112.2 241,112.2 241,112.8 243.4,112.8 "/>
<polyline points="225.4,112.8 225.4,112.2 224.5,112.2 222.5,110.1 224.2,108.3 225.1,108.3 225.1,107.6 222.9,107.6 222.9,108.3 
	223.4,108.3 222.1,109.6 220.7,108.3 221.3,108.3 221.3,107.6 219,107.6 219,108.3 219.9,108.3 221.7,110.1 219.6,112.2 
	218.8,112.2 218.8,112.8 221.2,112.8 221.2,112.2 220.5,112.2 222.1,110.5 223.7,112.2 223,112.2 223,112.8 225.4,112.8 "/>
<polyline points="189.4,130.8 189.4,130.2 188.5,130.2 186.5,128.1 188.2,126.3 189.1,126.3 189.1,125.6 186.9,125.6 186.9,126.3 
	187.4,126.3 186.1,127.6 184.7,126.3 185.3,126.3 185.3,125.6 183,125.6 183,126.3 183.9,126.3 185.7,128.1 183.6,130.2 
	182.8,130.2 182.8,130.8 185.2,130.8 185.2,130.2 184.5,130.2 186.1,128.5 187.7,130.2 187,130.2 187,130.8 189.4,130.8 "/>
<polyline points="201.4,139.7 201.4,139 200.5,139 198.5,137 200.2,135.1 201.1,135.1 201.1,134.5 198.9,134.5 198.9,135.1 
	199.4,135.1 198.1,136.5 196.7,135.1 197.3,135.1 197.3,134.5 195,134.5 195,135.1 195.9,135.1 197.7,136.9 195.6,139 194.8,139 
	194.8,139.7 197.2,139.7 197.2,139 196.5,139 198.1,137.4 199.7,139 199,139 199,139.7 201.4,139.7 "/>
<polyline points="216.3,148.8 216.3,148.2 215.4,148.2 213.4,146.1 215.1,144.3 216,144.3 216,143.6 213.8,143.6 213.8,144.3 
	214.3,144.3 213,145.6 211.6,144.3 212.2,144.3 212.2,143.6 209.8,143.6 209.8,144.3 210.8,144.3 212.6,146.1 210.5,148.2 
	209.6,148.2 209.6,148.8 212.1,148.8 212.1,148.2 211.3,148.2 213,146.5 214.6,148.2 213.8,148.2 213.8,148.8 216.3,148.8 "/>
<polyline points="225.4,139.7 225.4,139 224.5,139 222.5,137 224.2,135.1 225.1,135.1 225.1,134.5 222.9,134.5 222.9,135.1 
	223.4,135.1 222.1,136.5 220.7,135.1 221.3,135.1 221.3,134.5 219,134.5 219,135.1 219.9,135.1 221.7,136.9 219.6,139 218.8,139 
	218.8,139.7 221.2,139.7 221.2,139 220.5,139 222.1,137.4 223.7,139 223,139 223,139.7 225.4,139.7 "/>
<polyline points="237.4,151.7 237.4,151 236.5,151 234.5,149 236.2,147.1 237.1,147.1 237.1,146.5 234.9,146.5 234.9,147.1 
	235.4,147.1 234.1,148.5 232.7,147.1 233.3,147.1 233.3,146.5 231,146.5 231,147.1 231.9,147.1 233.7,148.9 231.6,151 230.8,151 
	230.8,151.7 233.2,151.7 233.2,151 232.5,151 234.1,149.4 235.7,151 235,151 235,151.7 237.4,151.7 "/>
<polyline points="261.4,112.8 261.4,112.2 260.5,112.2 258.5,110.1 260.2,108.3 261.1,108.3 261.1,107.6 258.9,107.6 258.9,108.3 
	259.4,108.3 258.1,109.6 256.7,108.3 257.3,108.3 257.3,107.6 255,107.6 255,108.3 255.9,108.3 257.7,110.1 255.6,112.2 
	254.8,112.2 254.8,112.8 257.2,112.8 257.2,112.2 256.5,112.2 258.1,110.5 259.7,112.2 259,112.2 259,112.8 261.4,112.8 "/>
<polyline points="171.4,121.7 171.4,121 170.5,121 168.5,119 170.2,117.1 171.1,117.1 171.1,116.5 168.9,116.5 168.9,117.1 
	169.4,117.1 168.1,118.5 166.7,117.1 167.3,117.1 167.3,116.5 165,116.5 165,117.1 165.9,117.1 167.7,118.9 165.6,121 164.8,121 
	164.8,121.7 167.2,121.7 167.2,121 166.5,121 168.1,119.4 169.7,121 169,121 169,121.7 171.4,121.7 "/>
<polyline points="249.4,139.7 249.4,139 248.5,139 246.5,137 248.2,135.1 249.1,135.1 249.1,134.5 246.9,134.5 246.9,135.1 
	247.4,135.1 246.1,136.5 244.7,135.1 245.3,135.1 245.3,134.5 243,134.5 243,135.1 243.9,135.1 245.7,136.9 243.6,139 242.8,139 
	242.8,139.7 245.2,139.7 245.2,139 244.5,139 246.1,137.4 247.7,139 247,139 247,139.7 249.4,139.7 "/>
<polyline points="189.4,121.7 189.4,121 188.5,121 186.5,119 188.2,117.1 189.1,117.1 189.1,116.5 186.9,116.5 186.9,117.1 
	187.4,117.1 186.1,118.5 184.7,117.1 185.3,117.1 185.3,116.5 183,116.5 183,117.1 183.9,117.1 185.7,118.9 183.6,121 182.8,121 
	182.8,121.7 185.2,121.7 185.2,121 184.5,121 186.1,119.4 187.7,121 187,121 187,121.7 189.4,121.7 "/>
<polyline points="153.4,67.7 153.4,67 152.5,67 150.5,65 152.2,63.1 153.1,63.1 153.1,62.5 150.9,62.5 150.9,63.1 151.4,63.1 
	150.1,64.5 148.7,63.1 149.3,63.1 149.3,62.5 147,62.5 147,63.1 147.9,63.1 149.7,64.9 147.6,67 146.8,67 146.8,67.7 149.2,67.7 
	149.2,67 148.5,67 150.1,65.4 151.7,67 151,67 151,67.7 153.4,67.7 "/>
<polyline points="165.4,31.7 165.4,31 164.5,31 162.5,29 164.2,27.1 165.1,27.1 165.1,26.5 162.9,26.5 162.9,27.1 163.4,27.1 
	162.1,28.5 160.7,27.1 161.3,27.1 161.3,26.5 159,26.5 159,27.1 159.9,27.1 161.7,28.9 159.6,31 158.8,31 158.8,31.7 161.2,31.7 
	161.2,31 160.5,31 162.1,29.4 163.7,31 163,31 163,31.7 165.4,31.7 "/>
<polyline points="144.3,22.8 144.3,22.2 143.4,22.2 141.4,20.1 143.1,18.3 144,18.3 144,17.6 141.8,17.6 141.8,18.3 142.3,18.3 
	141,19.6 139.6,18.3 140.2,18.3 140.2,17.6 137.8,17.6 137.8,18.3 138.8,18.3 140.6,20.1 138.5,22.2 137.6,22.2 137.6,22.8 
	140.1,22.8 140.1,22.2 139.3,22.2 141,20.5 142.6,22.2 141.8,22.2 141.8,22.8 144.3,22.8 "/>
<polyline points="54.3,112.8 54.3,112.2 53.4,112.2 51.4,110.1 53.1,108.3 54,108.3 54,107.6 51.8,107.6 51.8,108.3 52.3,108.3 
	51,109.6 49.6,108.3 50.2,108.3 50.2,107.6 47.8,107.6 47.8,108.3 48.8,108.3 50.6,110.1 48.5,112.2 47.6,112.2 47.6,112.8 
	50.1,112.8 50.1,112.2 49.3,112.2 51,110.5 52.6,112.2 51.8,112.2 51.8,112.8 54.3,112.8 "/>
<polyline points="66.3,124.8 66.3,124.2 65.4,124.2 63.4,122.1 65.1,120.3 66,120.3 66,119.6 63.8,119.6 63.8,120.3 64.3,120.3 
	63,121.6 61.6,120.3 62.2,120.3 62.2,119.6 59.8,119.6 59.8,120.3 60.8,120.3 62.6,122.1 60.5,124.2 59.6,124.2 59.6,124.8 
	62.1,124.8 62.1,124.2 61.3,124.2 63,122.5 64.6,124.2 63.8,124.2 63.8,124.8 66.3,124.8 "/>
<polyline points="78.3,136.8 78.3,136.2 77.4,136.2 75.4,134.1 77.1,132.3 78,132.3 78,131.6 75.8,131.6 75.8,132.3 76.3,132.3 
	75,133.6 73.6,132.3 74.2,132.3 74.2,131.6 71.8,131.6 71.8,132.3 72.8,132.3 74.6,134.1 72.5,136.2 71.6,136.2 71.6,136.8 
	74.1,136.8 74.1,136.2 73.3,136.2 75,134.5 76.6,136.2 75.8,136.2 75.8,136.8 78.3,136.8 "/>
<polyline points="45.4,130.8 45.4,130.2 44.5,130.2 42.5,128.1 44.2,126.3 45.1,126.3 45.1,125.6 42.9,125.6 42.9,126.3 43.4,126.3 
	42.1,127.6 40.7,126.3 41.3,126.3 41.3,125.6 39,125.6 39,126.3 39.9,126.3 41.7,128.1 39.6,130.2 38.8,130.2 38.8,130.8 
	41.2,130.8 41.2,130.2 40.5,130.2 42.1,128.5 43.7,130.2 43,130.2 43,130.8 45.4,130.8 "/>
<polyline points="36.3,31.7 36.3,31 35.4,31 33.4,29 35.1,27.1 36,27.1 36,26.5 33.8,26.5 33.8,27.1 34.3,27.1 33,28.5 31.6,27.1 
	32.2,27.1 32.2,26.5 29.8,26.5 29.8,27.1 30.8,27.1 32.6,28.9 30.5,31 29.6,31 29.6,31.7 32.1,31.7 32.1,31 31.3,31 33,29.4 
	34.6,31 33.8,31 33.8,31.7 36.3,31.7 "/>
<polyline points="48.3,43.7 48.3,43 47.4,43 45.4,41 47.1,39.1 48,39.1 48,38.5 45.8,38.5 45.8,39.1 46.3,39.1 45,40.5 43.6,39.1 
	44.2,39.1 44.2,38.5 41.8,38.5 41.8,39.1 42.8,39.1 44.6,40.9 42.5,43 41.6,43 41.6,43.7 44.1,43.7 44.1,43 43.3,43 45,41.4 
	46.6,43 45.8,43 45.8,43.7 48.3,43.7 "/>
<polyline points="60.3,55.7 60.3,55 59.4,55 57.4,53 59.1,51.1 60,51.1 60,50.5 57.8,50.5 57.8,51.1 58.3,51.1 57,52.5 55.6,51.1 
	56.2,51.1 56.2,50.5 53.8,50.5 53.8,51.1 54.8,51.1 56.6,52.9 54.5,55 53.6,55 53.6,55.7 56.1,55.7 56.1,55 55.3,55 57,53.4 
	58.6,55 57.8,55 57.8,55.7 60.3,55.7 "/>
<polyline points="36.3,49.7 36.3,49 35.4,49 33.4,47 35.1,45.1 36,45.1 36,44.5 33.8,44.5 33.8,45.1 34.3,45.1 33,46.5 31.6,45.1 
	32.2,45.1 32.2,44.5 29.8,44.5 29.8,45.1 30.8,45.1 32.6,46.9 30.5,49 29.6,49 29.6,49.7 32.1,49.7 32.1,49 31.3,49 33,47.4 
	34.6,49 33.8,49 33.8,49.7 36.3,49.7 "/>
<path fill="none" stroke="#000000" stroke-width="0.75" stroke-linecap="round" stroke-linejoin="round" stroke-miterlimit="10" stroke-dasharray="2.25,3" d="
	M223.5,108c4.8-0.5,14.4-1,19.9-1c5.5,0,10.3,0,13.4,1c3.1,1,4.8,2.6,5.8,4.6c0.7,1.9,2.2,4.3-0.2,6.7c-2.6,2.4-9.6,6.7-14.4,7.7
	c-5,0.7-10.3-1.2-15.1-2.4c-4.6-1-10.1-1.7-13-4.1c-3.1-2.4-5.3-8.2-4.6-10.1C215.9,108.3,221.9,108.5,223.5,108z M214.9,153.9
	c5.8,0.7,18,1.7,23.3,0.7c5.3-1,7.2-3.1,8.6-6.5c1.4-3.4,5-10.3,0.5-13.7c-4.8-3.6-19.4-4.8-28.6-7.7c-9.1-2.6-19-6.7-26.4-8.6
	c-7.2-1.7-12.5-2.4-17.5-2.6c-5,0-10.3,0.5-12.5,2.4c-2.2,1.7-1.7,6-0.2,8.6c1.4,2.4,4.8,4.1,9.4,6.7c4.3,2.6,12,6.7,17.3,9.4
	c5.3,2.6,10.3,4.8,14.6,6.7C207.7,151.2,209.1,152.9,214.9,153.9z M138.1,15.4c-9.1,0-20.2,1.9-25.9,4.1c-5.8,2.4-8.9,4.6-8.9,9.1
	s2.9,10.6,8.9,18s19.4,22.6,27.1,26.9c7.4,4.6,13.7,2.6,18,0c4.1-2.4,5-9.4,7-15.6c2.2-6.2,5.3-15.8,5.8-22.1
	c0.2-6.5,1.4-13-3.8-16.3C160.9,16.1,147,15.4,138.1,15.4z M40.2,109.5c-2.9,5.8-12,21.4-8.9,27.1c2.9,5.8,19.4,6,26.9,7.2
	c7.4,1.2,13.4,1.4,18,0c4.6-1.4,10.6-4.6,9.1-8.9c-1.7-4.6-13.7-13.7-18-18c-4.6-4.6-6-6.7-9.1-9.1c-2.9-2.4-6-5.3-8.9-5.3
	C46.2,102.5,43.3,103.9,40.2,109.5z M64.2,58.1c1.4-2.2,4.3-5.3,1.4-10.1c-2.6-4.6-12-13.4-18-18s-14.2-8.9-18-8.9
	c-3.8,0-4.3,4.3-5,8.9c-1,4.6-1,13.4,0,18c0.7,4.6,2.6,6.7,5,9.1c2.4,2.2,4.6,4.3,9.1,5c4.6,1,13.7,0.7,18,0
	C60.8,61.5,62.7,60.5,64.2,58.1z"/>
</svg>
