<?xml version="1.0" encoding="utf-8"?>
<!-- Generator: Adobe Illustrator 19.0.0, SVG Export Plug-In . SVG Version: 6.00 Build 0)  -->
<svg version="1.1" baseProfile="tiny" id="Layer_1" xmlns="http://www.w3.org/2000/svg" xmlns:xlink="http://www.w3.org/1999/xlink"
	 x="0px" y="0px" viewBox="0 0 226.8 141.7" xml:space="preserve">
<g>
	<rect x="4.6" y="6.1" fill="none" width="217" height="131.2"/>
	<path d="M3.9,137.9h218.4V5.4H3.9V137.9z M4.6,6.1h217v131.2H4.6V6.1z"/>
</g>
<polyline points="89.6,25 89.6,24.4 88.8,24.4 87,22.6 88.5,20.9 89.4,20.9 89.4,20.4 87.4,20.4 87.4,20.9 87.8,20.9 86.6,22.2 
	85.4,20.9 86,20.9 86,20.4 83.9,20.4 83.9,20.9 84.7,20.9 86.3,22.6 84.5,24.4 83.7,24.4 83.7,25 85.9,25 85.9,24.4 85.2,24.4 
	86.6,22.9 88.1,24.4 87.4,24.4 87.4,25 89.6,25 "/>
<polyline points="100.3,35.7 100.3,35.1 99.5,35.1 97.7,33.3 99.3,31.7 100.1,31.7 100.1,31.1 98.1,31.1 98.1,31.7 98.5,31.7 
	97.3,32.9 96.1,31.7 96.7,31.7 96.7,31.1 94.6,31.1 94.6,31.7 95.4,31.7 97,33.3 95.2,35.1 94.4,35.1 94.4,35.7 96.6,35.7 
	96.6,35.1 95.9,35.1 97.3,33.6 98.8,35.1 98.1,35.1 98.1,35.7 100.3,35.7 "/>
<polyline points="111,46.4 111,45.8 110.2,45.8 108.4,44 110,42.4 110.8,42.4 110.8,41.8 108.8,41.8 108.8,42.4 109.2,42.4 
	108,43.6 106.8,42.4 107.4,42.4 107.4,41.8 105.3,41.8 105.3,42.4 106.1,42.4 107.7,44 105.9,45.8 105.1,45.8 105.1,46.4 
	107.3,46.4 107.3,45.8 106.6,45.8 108,44.3 109.5,45.8 108.8,45.8 108.8,46.4 111,46.4 "/>
<polyline points="209.9,105.3 209.9,104.7 209.1,104.7 207.3,102.8 208.9,101.2 209.7,101.2 209.7,100.6 207.7,100.6 207.7,101.2 
	208.1,101.2 206.9,102.5 205.7,101.2 206.3,101.2 206.3,100.6 204.2,100.6 204.2,101.2 205,101.2 206.6,102.8 204.8,104.7 
	204,104.7 204,105.3 206.2,105.3 206.2,104.7 205.5,104.7 206.9,103.2 208.4,104.7 207.7,104.7 207.7,105.3 209.9,105.3 "/>
<polyline points="202,97.4 202,96.8 201.2,96.8 199.4,94.9 200.9,93.3 201.8,93.3 201.8,92.7 199.8,92.7 199.8,93.3 200.2,93.3 
	199,94.5 197.8,93.3 198.4,93.3 198.4,92.7 196.2,92.7 196.2,93.3 197.1,93.3 198.7,94.9 196.8,96.8 196,96.8 196,97.4 198.3,97.4 
	198.3,96.8 197.6,96.8 199,95.3 200.5,96.8 199.8,96.8 199.8,97.4 202,97.4 "/>
<polyline points="186,97.4 186,96.8 185.1,96.8 183.3,94.9 184.9,93.3 185.7,93.3 185.7,92.7 183.7,92.7 183.7,93.3 184.1,93.3 
	183,94.5 181.8,93.3 182.3,93.3 182.3,92.7 180.2,92.7 180.2,93.3 181,93.3 182.6,94.9 180.8,96.8 180,96.8 180,97.4 182.2,97.4 
	182.2,96.8 181.5,96.8 183,95.3 184.4,96.8 183.7,96.8 183.7,97.4 186,97.4 "/>
<polyline points="153.8,113.4 153.8,112.8 153,112.8 151.2,111 152.8,109.4 153.6,109.4 153.6,108.8 151.6,108.8 151.6,109.4 
	152,109.4 150.9,110.6 149.7,109.4 150.2,109.4 150.2,108.8 148.1,108.8 148.1,109.4 148.9,109.4 150.5,111 148.7,112.8 
	147.9,112.8 147.9,113.4 150.1,113.4 150.1,112.8 149.4,112.8 150.9,111.3 152.3,112.8 151.6,112.8 151.6,113.4 153.8,113.4 "/>
<polyline points="164.6,121.3 164.6,120.7 163.7,120.7 161.9,118.9 163.5,117.3 164.3,117.3 164.3,116.7 162.3,116.7 162.3,117.3 
	162.7,117.3 161.6,118.5 160.4,117.3 160.9,117.3 160.9,116.7 158.8,116.7 158.8,117.3 159.6,117.3 161.2,118.9 159.4,120.7 
	158.6,120.7 158.6,121.3 160.8,121.3 160.8,120.7 160.1,120.7 161.6,119.3 163,120.7 162.3,120.7 162.3,121.3 164.6,121.3 "/>
<polyline points="177.8,129.5 177.8,128.9 177,128.9 175.2,127 176.7,125.4 177.6,125.4 177.6,124.8 175.6,124.8 175.6,125.4 
	176,125.4 174.8,126.6 173.6,125.4 174.2,125.4 174.2,124.8 172.1,124.8 172.1,125.4 172.9,125.4 174.5,127 172.7,128.9 
	171.9,128.9 171.9,129.5 174.1,129.5 174.1,128.9 173.4,128.9 174.8,127.4 176.3,128.9 175.6,128.9 175.6,129.5 177.8,129.5 "/>
<polyline points="186,121.3 186,120.7 185.1,120.7 183.3,118.9 184.9,117.3 185.7,117.3 185.7,116.7 183.7,116.7 183.7,117.3 
	184.1,117.3 183,118.5 181.8,117.3 182.3,117.3 182.3,116.7 180.2,116.7 180.2,117.3 181,117.3 182.6,118.9 180.8,120.7 180,120.7 
	180,121.3 182.2,121.3 182.2,120.7 181.5,120.7 183,119.3 184.4,120.7 183.7,120.7 183.7,121.3 186,121.3 "/>
<polyline points="196.7,132 196.7,131.4 195.8,131.4 194,129.6 195.6,128 196.4,128 196.4,127.4 194.4,127.4 194.4,128 194.9,128 
	193.7,129.2 192.5,128 193,128 193,127.4 190.9,127.4 190.9,128 191.7,128 193.3,129.6 191.5,131.4 190.7,131.4 190.7,132 
	192.9,132 192.9,131.4 192.2,131.4 193.7,130 195.1,131.4 194.4,131.4 194.4,132 196.7,132 "/>
<polyline points="218.1,97.4 218.1,96.8 217.3,96.8 215.4,94.9 217,93.3 217.8,93.3 217.8,92.7 215.8,92.7 215.8,93.3 216.3,93.3 
	215.1,94.5 213.9,93.3 214.4,93.3 214.4,92.7 212.3,92.7 212.3,93.3 213.1,93.3 214.7,94.9 212.9,96.8 212.1,96.8 212.1,97.4 
	214.3,97.4 214.3,96.8 213.6,96.8 215.1,95.3 216.5,96.8 215.8,96.8 215.8,97.4 218.1,97.4 "/>
<polyline points="137.8,105.3 137.8,104.7 137,104.7 135.2,102.8 136.7,101.2 137.5,101.2 137.5,100.6 135.5,100.6 135.5,101.2 
	136,101.2 134.8,102.5 133.6,101.2 134.1,101.2 134.1,100.6 132,100.6 132,101.2 132.9,101.2 134.4,102.8 132.6,104.7 131.8,104.7 
	131.8,105.3 134,105.3 134,104.7 133.4,104.7 134.8,103.2 136.2,104.7 135.6,104.7 135.6,105.3 137.8,105.3 "/>
<polyline points="207.4,121.3 207.4,120.7 206.5,120.7 204.7,118.9 206.3,117.3 207.1,117.3 207.1,116.7 205.1,116.7 205.1,117.3 
	205.6,117.3 204.4,118.5 203.2,117.3 203.7,117.3 203.7,116.7 201.6,116.7 201.6,117.3 202.4,117.3 204,118.9 202.2,120.7 
	201.4,120.7 201.4,121.3 203.6,121.3 203.6,120.7 202.9,120.7 204.4,119.3 205.8,120.7 205.1,120.7 205.1,121.3 207.4,121.3 "/>
<polyline points="153.8,105.3 153.8,104.7 153,104.7 151.2,102.8 152.8,101.2 153.6,101.2 153.6,100.6 151.6,100.6 151.6,101.2 
	152,101.2 150.9,102.5 149.7,101.2 150.2,101.2 150.2,100.6 148.1,100.6 148.1,101.2 148.9,101.2 150.5,102.8 148.7,104.7 
	147.9,104.7 147.9,105.3 150.1,105.3 150.1,104.7 149.4,104.7 150.9,103.2 152.3,104.7 151.6,104.7 151.6,105.3 153.8,105.3 "/>
<polyline points="121.7,57.1 121.7,56.5 120.9,56.5 119.1,54.7 120.7,53.1 121.5,53.1 121.5,52.5 119.5,52.5 119.5,53.1 119.9,53.1 
	118.7,54.3 117.5,53.1 118.1,53.1 118.1,52.5 116,52.5 116,53.1 116.8,53.1 118.4,54.7 116.6,56.5 115.8,56.5 115.8,57.1 118,57.1 
	118,56.5 117.3,56.5 118.8,55 120.2,56.5 119.5,56.5 119.5,57.1 121.7,57.1 "/>
<polyline points="132.4,25 132.4,24.4 131.6,24.4 129.8,22.6 131.4,20.9 132.2,20.9 132.2,20.4 130.2,20.4 130.2,20.9 130.6,20.9 
	129.4,22.2 128.2,20.9 128.8,20.9 128.8,20.4 126.7,20.4 126.7,20.9 127.5,20.9 129.1,22.6 127.3,24.4 126.5,24.4 126.5,25 
	128.7,25 128.7,24.4 128,24.4 129.5,22.9 130.9,24.4 130.2,24.4 130.2,25 132.4,25 "/>
<polyline points="113.6,17.1 113.6,16.5 112.8,16.5 111,14.6 112.5,13 113.3,13 113.3,12.4 111.4,12.4 111.4,13 111.8,13 
	110.6,14.3 109.4,13 109.9,13 109.9,12.4 107.8,12.4 107.8,13 108.7,13 110.3,14.6 108.4,16.5 107.6,16.5 107.6,17.1 109.8,17.1 
	109.8,16.5 109.2,16.5 110.6,15 112.1,16.5 111.4,16.5 111.4,17.1 113.6,17.1 "/>
<polyline points="33.3,97.4 33.3,96.8 32.5,96.8 30.7,94.9 32.2,93.3 33.1,93.3 33.1,92.7 31.1,92.7 31.1,93.3 31.5,93.3 30.3,94.5 
	29.1,93.3 29.7,93.3 29.7,92.7 27.6,92.7 27.6,93.3 28.4,93.3 30,94.9 28.2,96.8 27.4,96.8 27.4,97.4 29.6,97.4 29.6,96.8 
	28.9,96.8 30.3,95.3 31.8,96.8 31.1,96.8 31.1,97.4 33.3,97.4 "/>
<polyline points="44,108.1 44,107.5 43.2,107.5 41.4,105.6 43,104 43.8,104 43.8,103.4 41.8,103.4 41.8,104 42.2,104 41,105.2 
	39.8,104 40.4,104 40.4,103.4 38.3,103.4 38.3,104 39.1,104 40.7,105.6 38.9,107.5 38.1,107.5 38.1,108.1 40.3,108.1 40.3,107.5 
	39.6,107.5 41,106 42.5,107.5 41.8,107.5 41.8,108.1 44,108.1 "/>
<polyline points="54.7,118.8 54.7,118.2 53.9,118.2 52.1,116.3 53.7,114.7 54.5,114.7 54.5,114.1 52.5,114.1 52.5,114.7 52.9,114.7 
	51.7,115.9 50.5,114.7 51.1,114.7 51.1,114.1 49,114.1 49,114.7 49.8,114.7 51.4,116.3 49.6,118.2 48.8,118.2 48.8,118.8 51,118.8 
	51,118.2 50.3,118.2 51.8,116.7 53.2,118.2 52.5,118.2 52.5,118.8 54.7,118.8 "/>
<polyline points="25.4,113.4 25.4,112.8 24.6,112.8 22.8,111 24.3,109.4 25.2,109.4 25.2,108.8 23.2,108.8 23.2,109.4 23.6,109.4 
	22.4,110.6 21.2,109.4 21.8,109.4 21.8,108.8 19.6,108.8 19.6,109.4 20.5,109.4 22.1,111 20.2,112.8 19.4,112.8 19.4,113.4 
	21.7,113.4 21.7,112.8 21,112.8 22.4,111.3 23.9,112.8 23.2,112.8 23.2,113.4 25.4,113.4 "/>
<polyline points="17.3,25 17.3,24.4 16.5,24.4 14.6,22.6 16.2,20.9 17,20.9 17,20.4 15,20.4 15,20.9 15.5,20.9 14.3,22.2 13.1,20.9 
	13.6,20.9 13.6,20.4 11.5,20.4 11.5,20.9 12.4,20.9 13.9,22.6 12.1,24.4 11.3,24.4 11.3,25 13.5,25 13.5,24.4 12.8,24.4 14.3,22.9 
	15.7,24.4 15.1,24.4 15.1,25 17.3,25 "/>
<polyline points="28,35.7 28,35.1 27.2,35.1 25.3,33.3 26.9,31.7 27.7,31.7 27.7,31.1 25.7,31.1 25.7,31.7 26.2,31.7 25,32.9 
	23.8,31.7 24.3,31.7 24.3,31.1 22.2,31.1 22.2,31.7 23.1,31.7 24.6,33.3 22.8,35.1 22,35.1 22,35.7 24.2,35.7 24.2,35.1 23.5,35.1 
	25,33.6 26.4,35.1 25.8,35.1 25.8,35.7 28,35.7 "/>
<polyline points="38.7,46.4 38.7,45.8 37.9,45.8 36,44 37.6,42.4 38.4,42.4 38.4,41.8 36.4,41.8 36.4,42.4 36.9,42.4 35.7,43.6 
	34.5,42.4 35,42.4 35,41.8 32.9,41.8 32.9,42.4 33.8,42.4 35.3,44 33.5,45.8 32.7,45.8 32.7,46.4 34.9,46.4 34.9,45.8 34.2,45.8 
	35.7,44.3 37.1,45.8 36.5,45.8 36.5,46.4 38.7,46.4 "/>
<polyline points="17.3,41.1 17.3,40.5 16.5,40.5 14.6,38.6 16.2,37 17,37 17,36.4 15,36.4 15,37 15.5,37 14.3,38.2 13.1,37 13.6,37 
	13.6,36.4 11.5,36.4 11.5,37 12.4,37 13.9,38.6 12.1,40.5 11.3,40.5 11.3,41.1 13.5,41.1 13.5,40.5 12.8,40.5 14.3,39 15.7,40.5 
	15.1,40.5 15.1,41.1 17.3,41.1 "/>
</svg>
